<svg width="345" height="154" viewBox="0 0 345 154" fill="none" xmlns="http://www.w3.org/2000/svg">
<g clip-path="url(#clip0_200_693)">
<path fill-rule="evenodd" clip-rule="evenodd" d="M197.744 23.7785C179.499 5.534 147.804 3.41889 129.559 21.6634C111.315 39.9079 113.43 71.6031 131.674 89.8476C149.919 108.092 181.318 109.911 199.563 91.667C217.807 73.4225 215.988 42.023 197.744 23.7785ZM128.139 20.243C148.336 0.0458445 181.082 0.0458445 201.279 20.243C221.476 40.4401 221.476 73.1861 201.279 93.3832C181.082 113.58 148.336 113.58 128.139 93.3832C107.942 73.1861 107.942 40.4401 128.139 20.243Z" fill="#8D9041"/>
<path d="M257 149L200 93" stroke="#8D9041" stroke-width="2" stroke-linejoin="round"/>
</g>
<path d="M76.855 149.38H69.7199V7.85901L76.855 5V149.38ZM0 107.023H104.852V109.065H0V107.023ZM70.5353 21.7456L70.7392 24.8089L1.63087 108.249L0 107.023L70.5353 21.7456Z" fill="#858585"/>
<path d="M324.003 149.38H316.867V7.85901L324.003 5V149.38ZM247.148 107.023H345V109.065H247.148V107.023ZM317.683 21.7456L317.887 24.8089L248.778 108.249L247.148 107.023L317.683 21.7456Z" fill="#858585"/>
<defs>
<clipPath id="clip0_200_693">
<rect width="147" height="154" fill="white" transform="translate(112)"/>
</clipPath>
</defs>
</svg>
