<svg width="8" height="9" viewBox="0 0 8 9" fill="none" xmlns="http://www.w3.org/2000/svg">
<path d="M0.818024 2.64652C0.911788 2.55278 1.03894 2.50012 1.17152 2.50012C1.30411 2.50012 1.43126 2.55278 1.52502 2.64652L4.00002 5.12152L6.47502 2.64652C6.56933 2.55544 6.69563 2.50504 6.82673 2.50618C6.95782 2.50732 7.08323 2.5599 7.17593 2.65261C7.26864 2.74531 7.32122 2.87072 7.32236 3.00181C7.3235 3.13291 7.2731 3.25921 7.18202 3.35352L4.35352 6.18202C4.25976 6.27575 4.13261 6.32841 4.00002 6.32841C3.86744 6.32841 3.74029 6.27575 3.64652 6.18202L0.818024 3.35352C0.724289 3.25975 0.671631 3.1326 0.671631 3.00002C0.671631 2.86743 0.724289 2.74028 0.818024 2.64652Z" fill="#F5F5F5"/>
</svg>
