<svg width="180" height="180" viewBox="0 0 180 180" fill="none" xmlns="http://www.w3.org/2000/svg">
<circle cx="90" cy="90" r="90" fill="#FFB9AF"/>
<mask id="mask0_515_10" style="mask-type:alpha" maskUnits="userSpaceOnUse" x="0" y="0" width="180" height="180">
<circle cx="90" cy="90" r="90" fill="#FB4D36"/>
</mask>
<g mask="url(#mask0_515_10)">
<path d="M108.975 -28.499C110.459 -30.0221 111.745 -30.7064 112.833 -30.7064C114.951 -30.6389 116.96 -29.8489 118.445 -28.499C119.222 -27.9368 119.863 -27.2403 120.331 -26.4513C120.798 -25.6622 121.082 -24.797 121.165 -23.9075C120.492 -21.1147 119.297 -18.4431 117.63 -16.0049C115.289 -11.899 112.511 -7.35912 109.297 -2.38503C107.648 0.102016 104.97 3.68541 101.261 8.36518C97.5515 13.0449 93.587 18.2618 89.367 24.0159C85.0646 29.7552 80.5643 35.6417 75.8663 41.6754C71.1682 47.7091 66.7751 53.2056 62.687 58.165L60.7584 60.3724C60.1155 61.145 59.5714 61.8072 59.1511 62.3812C56.6784 65.2508 53.8596 68.849 50.3237 73.1314C46.7878 77.4138 42.7573 82.1819 38.2571 87.3473C36.817 88.8025 35.4792 90.336 34.2514 91.9388C33.0645 93.4619 32.0507 94.6981 31.1853 95.6694L28.3171 99.113C28.3171 99.2896 29.3308 99.2896 31.3584 99.113C33.386 98.9143 35.8092 98.6273 38.5785 98.252C46.8207 97.1042 53.9503 96.2874 59.9671 95.8018C65.9839 95.3162 71.9264 95.0807 77.7949 95.0954C84.1078 94.9104 90.4218 95.4371 96.5872 96.6627C100.93 97.8058 104.866 99.9355 108.011 102.844C109.79 104.192 111.167 105.914 112.017 107.854C112.338 109.113 111.646 109.731 109.939 109.731C108.656 109.683 107.396 109.404 106.236 108.91C105.077 108.417 104.04 107.72 103.189 106.861C102.744 106.464 102.151 106 101.409 105.426C100.704 104.866 99.8543 104.472 98.9362 104.278C98.463 104.062 97.9758 103.87 97.4773 103.704C96.7505 103.475 95.9948 103.327 95.2272 103.263C94.2629 103.263 92.7546 103.131 91.0484 103.131H83.8282C78.8828 103.131 74.7782 103.131 71.4649 103.417C68.1515 103.704 64.6404 103.881 61.0056 104.278C58.6565 104.654 55.813 105.029 52.4996 105.426C49.1863 105.824 45.8976 106.243 42.609 106.707L33.7816 108.009C31.0864 108.384 29.232 108.671 28.1687 108.87C26.2714 109.258 24.329 109.443 22.3827 109.422C19.6847 109.501 17.0148 108.913 14.668 107.722C12.6306 106.689 11.0446 105.07 10.1677 103.131C9.94409 102.476 9.94409 101.776 10.1677 101.122C10.5854 99.9114 11.1754 98.7541 11.9234 97.6781C12.8877 96.1329 14.396 94.0358 16.4236 91.3648C18.4512 88.6938 21.1957 85.0516 24.6327 80.4601L31.037 72.7783C33.4931 69.7173 35.9658 66.465 38.4549 63.0213C40.9441 59.5777 43.5733 56.09 46.3427 52.5581C49.0132 49.0262 51.4859 45.7224 53.7607 42.6467C55.9119 39.777 58.2609 36.6866 60.8325 33.3313L68.2504 23.729C70.6077 20.6533 72.8579 17.7836 75.0009 15.1199C77.1274 12.4269 78.8581 10.2415 80.1439 8.49762L96.5377 -12.7379C101.236 -18.8599 104.129 -22.6861 105.217 -24.2165C105.637 -24.7905 106.231 -25.4969 106.972 -26.424C107.714 -27.3511 108.53 -27.925 108.975 -28.499Z" fill="#727532"/>
<path d="M148.352 53.3695C149.553 52.1615 150.594 51.6188 151.475 51.6188C153.19 51.6724 154.816 52.2989 156.019 53.3695C156.647 53.8154 157.166 54.3678 157.545 54.9936C157.923 55.6194 158.153 56.3056 158.221 57.011C157.676 59.226 156.708 61.3449 155.358 63.2787C153.463 66.535 151.215 70.1356 148.613 74.0806C147.278 76.0531 145.11 78.8951 142.107 82.6066C139.105 86.3182 135.895 90.4557 132.479 95.0193C128.996 99.5712 125.353 104.24 121.55 109.025C117.747 113.81 114.19 118.17 110.881 122.103L109.32 123.854C108.799 124.466 108.359 124.992 108.018 125.447C106.017 127.723 103.735 130.577 100.872 133.973C98.0101 137.369 94.7473 141.151 91.1043 145.248C89.9385 146.402 88.8555 147.618 87.8616 148.889C86.9008 150.097 86.0801 151.078 85.3795 151.848L83.0576 154.579C83.0576 154.719 83.8783 154.719 85.5196 154.579C87.161 154.421 89.1226 154.194 91.3645 153.896C98.0368 152.986 103.808 152.338 108.679 151.953C113.55 151.568 118.36 151.381 123.111 151.393C128.222 151.246 133.333 151.664 138.324 152.636C141.84 153.542 145.026 155.231 147.572 157.538C149.012 158.607 150.126 159.973 150.814 161.512C151.075 162.51 150.514 163 149.133 163C148.094 162.962 147.074 162.741 146.135 162.349C145.196 161.958 144.357 161.406 143.668 160.724C143.308 160.409 142.828 160.041 142.227 159.586C141.657 159.142 140.969 158.829 140.225 158.676C139.842 158.504 139.448 158.352 139.044 158.221C138.456 158.039 137.844 157.921 137.223 157.87C136.442 157.87 135.221 157.765 133.84 157.765H127.995C123.992 157.765 120.669 157.765 117.987 157.993C115.305 158.221 112.462 158.361 109.52 158.676C107.618 158.973 105.316 159.271 102.634 159.586C99.9517 159.901 97.2895 160.234 94.6272 160.602L87.4812 161.634C85.2994 161.932 83.7982 162.16 82.9375 162.317C81.4015 162.625 79.8292 162.772 78.2535 162.755C76.0695 162.818 73.9081 162.351 72.0083 161.407C70.359 160.587 69.0751 159.304 68.3653 157.765C68.1842 157.246 68.1842 156.691 68.3653 156.172C68.7034 155.212 69.181 154.294 69.7865 153.441C70.5671 152.215 71.7882 150.552 73.4296 148.434C75.0709 146.316 77.2927 143.427 80.075 139.785L85.2594 133.693C87.2477 131.265 89.2494 128.686 91.2644 125.955C93.2795 123.224 95.4079 120.457 97.6498 117.656C99.8116 114.855 101.813 112.235 103.655 109.795C105.396 107.519 107.298 105.068 109.38 102.407L115.385 94.7917C117.293 92.3524 119.114 90.0764 120.849 87.9638C122.571 85.828 123.972 84.0947 125.013 82.7117L138.284 65.8697C142.087 61.0143 144.429 57.9798 145.31 56.7659C145.65 56.3108 146.13 55.7505 146.731 55.0152C147.331 54.2799 147.992 53.8247 148.352 53.3695Z" fill="#727532"/>
<path d="M142.721 70.2939C143.133 71.0468 143.181 71.5523 142.874 71.8319C141.93 72.3512 140.894 72.7153 139.812 72.9075C138.999 73.0903 138.128 73.327 137.209 73.6066C136.29 73.8863 135.277 74.1659 134.146 74.4456L130.789 75.5211C129.148 76.0374 127.158 76.6218 124.818 77.2743C122.462 77.9304 119.918 78.5972 117.162 79.2964C114.405 79.9955 111.602 80.6301 108.74 81.1894C108.127 81.3686 107.515 81.53 106.902 81.6734C106.29 81.8132 105.725 81.9745 105.065 82.1681C101.59 83.0931 98.151 83.9859 94.7352 84.8248C91.3071 85.6608 87.7947 86.1762 84.2523 86.3629C81.893 86.5384 79.5189 86.4444 77.1851 86.0832C74.8732 85.7377 72.6915 84.8728 70.8364 83.5663C68.8229 82.1079 67.3741 80.0988 66.7022 77.8336C65.998 75.6056 65.8929 73.2553 66.396 70.9822C66.8922 68.6966 67.9073 66.5312 69.3759 64.6256C70.8668 62.7057 72.5894 60.9451 74.5114 59.3769C75.6337 58.5409 76.814 57.7721 78.0449 57.0751C79.2824 56.3693 80.6227 55.8262 82.0261 55.4618C83.4193 55.0995 84.8656 54.9362 86.3135 54.9778C87.764 55.0406 89.1789 55.4087 90.4478 56.0533C91.9155 56.8482 93.0668 58.0503 93.734 59.4844C94.1227 60.1486 94.3192 60.8924 94.3047 61.6453C94.2903 62.3983 94.0654 63.1353 93.6515 63.7867C93.2593 64.5275 92.6523 65.1562 91.8965 65.6044C91.1437 66.0725 90.3566 66.4929 89.5408 66.8628C84.5375 69.2273 79.167 70.8777 73.6162 71.7566C72.9475 71.8396 72.3142 72.0806 71.7788 72.4557C71.5036 72.8294 71.3448 73.2644 71.3194 73.7142C71.1163 74.5148 71.0136 75.3339 71.0131 76.1557C71.0129 76.9601 71.2229 77.7528 71.6257 78.4682C72.3046 79.5631 73.4313 80.3677 74.7587 80.7054C76.1268 81.079 77.5475 81.2675 78.9755 81.2647C82.4524 81.1667 85.9113 80.7669 89.3053 80.0707C92.7211 79.3537 96.1133 78.5865 99.482 77.7691L102.238 77.1345C103.263 76.9086 104.229 76.6935 105.147 76.5106L108.516 75.6717C109.235 75.4889 109.894 75.3168 110.507 75.1769C111.119 75.0371 111.579 74.9295 111.885 74.8327C115.654 73.897 119.211 73.0151 122.486 72.1761C125.76 71.3372 128.74 70.6165 131.296 70.025C133.852 69.4334 135.878 68.9494 137.409 68.6267C138.313 68.4003 139.234 68.2349 140.165 68.132C140.744 68.1643 141.289 68.3902 141.696 68.7666C142.187 69.179 142.541 69.7078 142.721 70.2939ZM76.4431 65.4L79.3524 64.5611C81.7761 63.7794 84.1375 62.845 86.4196 61.7646C88.5633 60.7428 89.5762 60.0437 89.482 59.6673C89.3877 59.2908 88.4808 59.3661 87.1262 59.6027C85.7725 59.8289 84.4602 60.2272 83.2275 60.7859C82.1383 61.3067 81.0878 61.8924 80.0827 62.539C79.0658 63.1143 78.162 63.8415 77.4089 64.6901L76.4431 65.4Z" fill="#727532"/>
<path d="M148.435 105.847C147.455 106.791 146.179 106.765 144.606 105.768C143.638 105.154 143.099 104.565 142.988 104C142.859 103.341 142.86 102.806 142.991 102.395C143.122 101.984 143.594 101.418 144.406 100.697C145.199 99.8815 145.885 99.3276 146.463 99.035C147.21 98.5195 148.09 98.4187 149.105 98.7327C150.102 98.9525 150.898 99.4982 151.492 100.37C152.05 101.053 152.212 101.609 151.978 102.037C151.866 102.543 150.685 103.813 148.435 105.847ZM189.867 117.78C190.322 118.48 190.433 119.045 190.199 119.474C189.947 119.808 188.996 120.358 187.345 121.125C185.797 121.873 183.806 122.795 181.372 123.888C179.022 124.87 176.733 125.891 174.504 126.949C173.721 127.277 171.875 128.125 168.965 129.493C166.139 130.751 163.025 132.154 159.621 133.704C158.735 134.049 157.859 134.44 156.991 134.879C156.106 135.224 155.28 135.607 154.515 136.029C147.942 138.7 142.735 140.507 138.894 141.45C135.156 142.376 132.397 142.892 130.617 143C129.779 143.045 129.145 143.055 128.716 143.031C128.39 142.989 127.892 142.879 127.222 142.701C124.884 142.125 123.097 141.115 121.86 139.672C120.605 138.135 120.203 136.356 120.654 134.334C121.003 132.331 121.887 130.09 123.308 127.612C124.626 125.152 126.364 122.67 128.521 120.165C129.632 118.809 131.056 117.158 132.793 115.21C134.632 113.245 136.186 111.718 137.455 110.627C137.894 110.164 138.351 109.794 138.827 109.519C139.284 109.15 139.615 108.948 139.82 108.913C140.641 108.774 141.493 109.067 142.376 109.792C143.242 110.423 143.627 111.039 143.533 111.638C143.402 112.049 142.916 112.812 142.075 113.927C141.235 115.042 139.652 116.964 137.327 119.692C136.131 121.159 134.945 122.673 133.768 124.234C132.573 125.7 131.471 127.103 130.462 128.441C129.454 129.779 128.58 130.996 127.842 132.094C127.085 133.098 126.6 133.861 126.384 134.383C126.216 134.606 126.141 134.765 126.16 134.859C126.055 135.946 126.221 136.793 126.658 137.4C126.974 137.93 127.425 138.339 128.012 138.629C128.598 138.918 129.371 139.079 130.331 139.11C133.519 138.083 136.358 137.164 138.847 136.353C141.337 135.542 143.407 134.753 145.057 133.987C147.034 133.263 148.787 132.479 150.317 131.636C151.492 131.145 152.471 130.736 153.254 130.408C154.14 130.064 154.821 129.754 155.296 129.479C156.08 129.151 156.863 128.824 157.646 128.497C158.532 128.152 159.171 127.898 159.562 127.734C163.274 126.132 166.687 124.629 169.801 123.226C173.018 121.805 175.802 120.603 178.152 119.621C180.585 118.528 182.544 117.709 184.026 117.166C185.49 116.529 186.376 116.184 186.684 116.132C187.811 115.941 188.873 116.49 189.867 117.78Z" fill="#727532"/>
</g>
</svg>
