<svg width="24" height="24" viewBox="0 0 24 24" fill="none" xmlns="http://www.w3.org/2000/svg">
<path d="M17.3906 12C17.3906 13.0662 17.0745 14.1084 16.4821 14.9949C15.8898 15.8814 15.0479 16.5723 14.0629 16.9803C13.0779 17.3883 11.994 17.495 10.9483 17.287C9.90266 17.079 8.94215 16.5656 8.18825 15.8117C7.43436 15.0579 6.92095 14.0973 6.71296 13.0517C6.50496 12.006 6.61171 10.9221 7.01971 9.9371C7.42772 8.95209 8.11865 8.11019 9.00513 7.51786C9.89161 6.92553 10.9338 6.60937 12 6.60937C13.4297 6.60937 14.8008 7.17731 15.8117 8.18825C16.8227 9.19919 17.3906 10.5703 17.3906 12ZM8.01563 12C8.01563 12.788 8.2493 13.5584 8.68711 14.2136C9.12492 14.8688 9.7472 15.3795 10.4752 15.6811C11.2033 15.9827 12.0044 16.0616 12.7773 15.9078C13.5502 15.7541 14.2602 15.3746 14.8174 14.8174C15.3746 14.2602 15.7541 13.5502 15.9078 12.7773C16.0616 12.0044 15.9827 11.2033 15.6811 10.4752C15.3795 9.7472 14.8688 9.12492 14.2136 8.68711C13.5584 8.2493 12.788 8.01562 12 8.01562C10.9442 8.01872 9.93258 8.43949 9.18604 9.18604C8.43949 9.93258 8.01872 10.9442 8.01563 12ZM23.4844 6.84375L23.4844 17.1562C23.4844 18.8346 22.8177 20.4442 21.6309 21.6309C20.4442 22.8177 18.8346 23.4844 17.1563 23.4844L6.84375 23.4844C5.16543 23.4844 3.55585 22.8177 2.36909 21.6309C1.18234 20.4442 0.515627 18.8346 0.515627 17.1563L0.515626 6.84375C0.515626 5.16543 1.18234 3.55584 2.36909 2.36909C3.55584 1.18234 5.16543 0.515624 6.84375 0.515624L17.1562 0.515623C18.8346 0.515623 20.4442 1.18234 21.6309 2.36909C22.8177 3.55584 23.4844 5.16543 23.4844 6.84375ZM6.84375 1.92187C5.53839 1.92187 4.28649 2.44043 3.36346 3.36346C2.44043 4.28649 1.92188 5.53839 1.92188 6.84375L1.92188 17.1563C1.92188 18.4616 2.44043 19.7135 3.36346 20.6365C4.28649 21.5596 5.53839 22.0781 6.84375 22.0781L17.1563 22.0781C18.4616 22.0781 19.7135 21.5596 20.6365 20.6365C21.5596 19.7135 22.0781 18.4616 22.0781 17.1562L22.0781 6.84375C22.0781 5.53839 21.5596 4.28649 20.6365 3.36346C19.7135 2.44043 18.4616 1.92187 17.1562 1.92187L6.84375 1.92187ZM18.0937 4.73437C17.862 4.73437 17.6354 4.8031 17.4427 4.93187C17.25 5.06064 17.0998 5.24366 17.0111 5.45779C16.9224 5.67192 16.8992 5.90755 16.9444 6.13487C16.9896 6.36219 17.1012 6.571 17.2651 6.73489C17.429 6.89878 17.6378 7.01039 17.8651 7.05561C18.0924 7.10082 18.3281 7.07762 18.5422 6.98892C18.7563 6.90022 18.9394 6.75002 19.0681 6.55731C19.1969 6.3646 19.2656 6.13802 19.2656 5.90625C19.2656 5.59545 19.1422 5.29738 18.9224 5.07761C18.7026 4.85784 18.4046 4.73437 18.0937 4.73437Z" fill="currentColor"/>
</svg>
