<svg width="199" height="47" viewBox="0 0 199 47" fill="none" xmlns="http://www.w3.org/2000/svg">
<path d="M11.7524 3.26557C11.9288 3.06634 12.0817 2.97684 12.2111 2.97684C12.463 2.98567 12.7018 3.08901 12.8785 3.26557C12.9708 3.3391 13.0471 3.43021 13.1027 3.53341C13.1583 3.63662 13.192 3.74979 13.2019 3.86613C13.1219 4.23143 12.9798 4.58088 12.7815 4.8998C12.5031 5.43685 12.1729 6.03067 11.7906 6.68128C11.5946 7.00659 11.2761 7.4753 10.835 8.08741C10.394 8.69952 9.92258 9.3819 9.42077 10.1345C8.90917 10.8852 8.37403 11.6552 7.81538 12.4444C7.25673 13.2336 6.73434 13.9525 6.24822 14.6012L6.01888 14.89C5.94244 14.991 5.87774 15.0776 5.82776 15.1527C5.53373 15.5281 5.19854 15.9987 4.77808 16.5588C4.35763 17.119 3.87836 17.7427 3.34323 18.4183C3.17199 18.6086 3.01292 18.8092 2.86691 19.0189C2.72578 19.2181 2.60523 19.3798 2.50232 19.5068L2.16126 19.9572C2.16126 19.9803 2.2818 19.9803 2.52291 19.9572C2.76401 19.9313 3.05215 19.8937 3.38146 19.8446C4.36155 19.6945 5.20933 19.5877 5.92479 19.5241C6.64026 19.4606 7.34689 19.4298 8.04471 19.4317C8.79539 19.4075 9.5462 19.4764 10.2793 19.6367C10.7957 19.7863 11.2638 20.0648 11.6377 20.4452C11.8493 20.6216 12.013 20.8468 12.114 21.1006C12.1523 21.2652 12.0699 21.346 11.8671 21.346C11.7144 21.3398 11.5647 21.3033 11.4267 21.2388C11.2888 21.1743 11.1656 21.0831 11.0644 20.9707C11.0114 20.9187 10.9409 20.8581 10.8527 20.783C10.7689 20.7098 10.6678 20.6582 10.5587 20.6329C10.5024 20.6045 10.4444 20.5795 10.3852 20.5578C10.2987 20.5278 10.2089 20.5084 10.1176 20.5001C10.0029 20.5001 9.82359 20.4827 9.62071 20.4827H8.76214C8.17409 20.4827 7.686 20.4827 7.29201 20.5203C6.89801 20.5578 6.4805 20.5809 6.04828 20.6329C5.76895 20.6819 5.43082 20.731 5.03683 20.783C4.64283 20.835 4.25178 20.8898 3.86072 20.9505L2.81105 21.1208C2.49056 21.1699 2.27005 21.2074 2.14362 21.2334C1.918 21.2842 1.68703 21.3084 1.45559 21.3056C1.13478 21.316 0.817291 21.2391 0.538228 21.0833C0.295964 20.9481 0.10737 20.7365 0.00309774 20.4827C-0.0234935 20.3971 -0.0234935 20.3056 0.00309774 20.22C0.05276 20.0617 0.122927 19.9103 0.211863 19.7696C0.326533 19.5674 0.505892 19.2931 0.746993 18.9438C0.988095 18.5944 1.31445 18.118 1.72315 17.5174L2.48468 16.5127C2.77675 16.1123 3.07077 15.6869 3.36676 15.2364C3.66275 14.786 3.9754 14.3298 4.30471 13.8679C4.62225 13.4059 4.91628 12.9737 5.18678 12.5714C5.44259 12.1961 5.72191 11.7919 6.0277 11.353L6.90978 10.097C7.19008 9.6947 7.45766 9.31934 7.71248 8.97093C7.96534 8.61868 8.17115 8.33283 8.32404 8.10473L10.2734 5.32712C10.8321 4.52637 11.1761 4.0259 11.3055 3.82571C11.3555 3.75064 11.426 3.65825 11.5142 3.53698C11.6024 3.41571 11.6995 3.34064 11.7524 3.26557Z" fill="currentColor"/>
<path d="M33.8365 15.5367C33.9394 15.7388 33.9512 15.8745 33.8748 15.9496C33.6391 16.089 33.3803 16.1868 33.1103 16.2384C32.9074 16.2874 32.6898 16.351 32.4605 16.426C32.2312 16.5011 31.9783 16.5762 31.696 16.6512L30.858 16.94C30.4484 17.0786 29.9515 17.2354 29.3673 17.4106C28.7793 17.5867 28.1442 17.7658 27.4562 17.9534C26.7681 18.1411 26.0684 18.3115 25.3539 18.4616C25.201 18.5097 25.0481 18.553 24.8952 18.5915C24.7423 18.6291 24.6012 18.6724 24.4365 18.7243C23.5691 18.9727 22.7106 19.2123 21.8579 19.4375C21.0021 19.662 20.1253 19.8003 19.2411 19.8504C18.6521 19.8975 18.0595 19.8723 17.4769 19.7753C16.8998 19.6826 16.3552 19.4504 15.8921 19.0997C15.3895 18.7082 15.0278 18.1689 14.8601 17.5608C14.6843 16.9626 14.6581 16.3317 14.7836 15.7215C14.9075 15.1079 15.1609 14.5266 15.5275 14.0151C15.8997 13.4997 16.3297 13.0271 16.8095 12.6061C17.0896 12.3817 17.3843 12.1753 17.6915 11.9882C18.0005 11.7987 18.335 11.6529 18.6853 11.5551C19.0331 11.4578 19.3942 11.414 19.7556 11.4252C20.1177 11.442 20.4709 11.5409 20.7876 11.7139C21.154 11.9273 21.4414 12.25 21.608 12.635C21.705 12.8132 21.754 13.0129 21.7504 13.2151C21.7468 13.4172 21.6907 13.615 21.5874 13.7899C21.4895 13.9888 21.338 14.1575 21.1493 14.2779C20.9614 14.4035 20.7649 14.5164 20.5612 14.6157C19.3123 15.2504 17.9716 15.6935 16.586 15.9294C16.4191 15.9517 16.261 16.0164 16.1273 16.1171C16.0586 16.2174 16.019 16.3342 16.0127 16.4549C15.962 16.6698 15.9363 16.8897 15.9362 17.1103C15.9362 17.3263 15.9886 17.5391 16.0891 17.7311C16.2586 18.025 16.5398 18.241 16.8712 18.3317C17.2127 18.432 17.5674 18.4826 17.9238 18.4818C18.7918 18.4555 19.6552 18.3482 20.5024 18.1613C21.3551 17.9688 22.2019 17.7629 23.0428 17.5434L23.7308 17.3731C23.9867 17.3124 24.2277 17.2547 24.4571 17.2056L25.298 16.9804C25.4774 16.9313 25.642 16.8851 25.7949 16.8476C25.9478 16.81 26.0625 16.7812 26.1389 16.7552C27.0798 16.504 27.9678 16.2672 28.7852 16.042C29.6026 15.8168 30.3464 15.6234 30.9845 15.4645C31.6225 15.3057 32.1282 15.1758 32.5105 15.0892C32.7362 15.0284 32.9662 14.984 33.1985 14.9564C33.3429 14.9651 33.479 15.0257 33.5807 15.1267C33.7031 15.2374 33.7916 15.3794 33.8365 15.5367ZM17.2917 14.223L18.0179 13.9978C18.623 13.7879 19.2124 13.5371 19.7821 13.2471C20.3172 12.9728 20.5701 12.7851 20.5465 12.684C20.523 12.583 20.2966 12.6032 19.9585 12.6667C19.6206 12.7274 19.293 12.8344 18.9853 12.9843C18.7134 13.1242 18.4511 13.2814 18.2002 13.455C17.9464 13.6094 17.7208 13.8046 17.5328 14.0324L17.2917 14.223Z" fill="currentColor"/>
<path d="M53.8215 15.5743C53.8979 15.7764 53.9038 15.9179 53.8421 16.0074C53.6214 16.1683 53.3658 16.277 53.0953 16.325C52.6895 16.4501 52.1671 16.5935 51.5281 16.7552C50.893 16.9198 50.2814 17.0872 49.6963 17.2634C49.4905 17.3125 49.0142 17.4395 48.2615 17.6387C47.5088 17.8379 46.6884 18.0632 45.7975 18.3144C45.5682 18.3894 45.3447 18.4587 45.1301 18.5194C44.9154 18.58 44.6891 18.6377 44.4597 18.6897L42.1281 19.2903L39.9317 19.8677C39.128 20.0814 38.3832 20.2739 37.6971 20.4452C37.5365 20.6545 37.3892 20.8734 37.2561 21.1006L36.3975 22.5068C35.9898 23.1593 35.6389 23.7223 35.3449 24.1959C35.0509 24.6694 34.7804 25.0919 34.5334 25.4634C34.2893 25.8243 34.0659 26.139 33.863 26.4018C33.6601 26.6645 33.469 26.9071 33.2749 27.1323C32.6646 27.91 31.9368 28.5916 31.1168 29.1534C30.51 29.5881 29.7856 29.8363 29.0351 29.8666C28.7699 29.8754 28.505 29.8432 28.25 29.7713C28.012 29.6835 27.7874 29.564 27.5826 29.4162C27.4398 29.3216 27.3111 29.2079 27.2004 29.0783C27.0981 28.9361 27.0086 28.7853 26.9328 28.6279C26.7904 28.3434 26.6914 28.0399 26.6388 27.7271C26.6037 27.4008 26.6235 27.0711 26.6976 26.7511C26.8262 26.247 27.0054 25.7566 27.2327 25.2873C27.4918 24.7643 27.8125 24.2729 28.1883 23.8234C29.0289 22.849 30.0457 22.0356 31.1874 21.424C32.6305 20.6178 34.1625 19.9756 35.7536 19.5097L36.2505 19.322L36.9385 18.271C37.1149 17.9823 37.3208 17.633 37.5501 17.2576C37.7794 16.8823 37.9706 16.5935 38.1381 16.3914C38.2641 16.2106 38.379 16.0226 38.4822 15.8284C38.5208 15.7459 38.5724 15.6699 38.6351 15.6032C37.3355 16.3539 36.2397 16.9313 35.3478 17.3356C34.456 17.7398 33.8189 17.94 33.4367 17.9361C33.2213 17.9341 33.0112 17.8708 32.8317 17.754C32.6522 17.6372 32.511 17.4718 32.4252 17.2778C32.3072 17.0838 32.24 16.8641 32.2298 16.6383C32.2195 16.4126 32.2665 16.1878 32.3664 15.9843C32.5452 15.6282 32.7568 15.289 32.9986 14.9708C33.2979 14.5661 33.6229 14.1803 33.9718 13.8159C34.5096 13.2489 35.1124 12.7451 35.7683 12.3145C36.3395 11.9599 36.9566 11.6822 37.603 11.4887C38.0675 11.3473 38.5598 11.3179 39.0383 11.4028C39.5168 11.4877 39.9675 11.6846 40.3522 11.9767C40.6582 12.2272 40.9344 12.511 41.1754 12.8227C41.3928 13.0677 41.5552 13.3549 41.6518 13.6658C41.6494 13.8889 41.5764 14.1058 41.443 14.2865C41.2754 14.5753 40.9255 15.1181 40.3904 15.9179C40.1944 16.2182 39.9915 16.5242 39.7817 16.836C39.5759 17.1508 39.3907 17.4366 39.226 17.7022C39.0614 17.9679 38.932 18.1844 38.8262 18.3606C38.7636 18.4505 38.7123 18.5474 38.6733 18.6493L38.9673 18.5742C39.0737 18.5481 39.1818 18.5288 39.2907 18.5165C39.4279 18.4995 39.5629 18.4685 39.6935 18.4241C40.9579 18.0776 42.1781 17.7581 43.3542 17.4655C44.5303 17.1729 45.6388 16.8919 46.6796 16.6224C47.5715 16.3972 48.3997 16.1845 49.1641 15.9843L51.1694 15.4588C51.7418 15.3086 52.2004 15.196 52.5454 15.121C52.7522 15.0688 52.9625 15.0311 53.1747 15.0084C53.4275 15.0112 53.6451 15.1989 53.8215 15.5743ZM32.8045 24.8426C32.9339 24.6665 33.1309 24.3806 33.3926 23.9764C33.6542 23.5722 33.9189 23.1709 34.1747 22.758L34.845 21.6694C34.955 21.508 35.0533 21.3392 35.1391 21.1642C35.1391 21.0891 34.845 21.1873 34.257 21.4529C33.2454 21.8976 32.2737 22.425 31.352 23.0294C30.5863 23.5213 29.8936 24.115 29.2938 24.7935C28.8827 25.2736 28.5359 25.8034 28.2618 26.37C28.0008 26.8752 27.8326 27.4215 27.7649 27.984C27.7261 28.1482 27.7458 28.3204 27.8208 28.472C27.8829 28.5186 27.954 28.5526 28.0297 28.572C28.1054 28.5913 28.1843 28.5956 28.2618 28.5846C29.0263 28.5846 29.9083 28.0966 30.908 27.1207C31.2575 26.8061 31.5837 26.4674 31.8842 26.1073C32.1429 25.7897 32.4497 25.3681 32.8045 24.8426ZM36.5916 14.8669C36.8974 14.7167 37.2472 14.5243 37.6412 14.2894C38.0352 14.0642 38.4116 13.8592 38.7703 13.6715C39.129 13.4838 39.5583 13.2384 40.0699 12.9381C40.0699 12.9151 39.9934 12.8631 39.8406 12.788C39.7455 12.7528 39.647 12.7277 39.5465 12.7129C39.4145 12.6897 39.2808 12.6771 39.1467 12.6754C38.4581 12.6486 37.7757 12.8116 37.1767 13.146C36.3704 13.5689 35.6411 14.1201 35.0185 14.7774C34.7127 15.1027 34.4324 15.4155 34.1776 15.7158C33.9218 16.0045 33.8071 16.1777 33.8336 16.2037C33.8601 16.2297 33.9218 16.2037 34.1012 16.1286C34.2805 16.0536 34.4952 15.9467 34.751 15.811C35.0068 15.6753 35.2978 15.5223 35.633 15.3606C35.9682 15.1989 36.2975 15.0372 36.5916 14.8669Z" fill="currentColor"/>
<path d="M71.8953 15.5368C71.9982 15.7389 72.01 15.8746 71.9335 15.9496C71.6979 16.089 71.4391 16.1868 71.1691 16.2384C70.9662 16.2875 70.7486 16.351 70.5222 16.426C70.2958 16.5011 70.0371 16.5762 69.7578 16.6513L68.9168 16.94C68.5071 17.0786 68.0102 17.2355 67.4261 17.4106C66.8381 17.5868 66.203 17.7658 65.5149 17.9534C64.8269 18.1411 64.1271 18.3115 63.4126 18.4616C63.2597 18.5097 63.1069 18.5531 62.954 18.5916C62.8011 18.6291 62.6599 18.6724 62.4953 18.7244C61.6308 18.9727 60.7693 19.2123 59.9167 19.4375C59.0609 19.6622 58.1842 19.8005 57.2999 19.8504C56.7109 19.8976 56.1183 19.8723 55.5357 19.7754C54.9586 19.6826 54.414 19.4504 53.9509 19.0997C53.4483 18.7082 53.0866 18.1689 52.9189 17.5608C52.7431 16.9627 52.7168 16.3317 52.8424 15.7215C52.966 15.1074 53.2205 14.5258 53.5892 14.0151C54.1473 13.1928 54.8845 12.5025 55.7474 11.994C56.0563 11.8045 56.3909 11.6587 56.7412 11.5609C57.089 11.4636 57.45 11.4198 57.8115 11.431C58.1735 11.4478 58.5267 11.5467 58.8435 11.7197C59.2099 11.9331 59.4973 12.2558 59.6638 12.6408C59.7605 12.819 59.8096 13.0185 59.8065 13.2205C59.8034 13.4224 59.7482 13.6203 59.6462 13.7957C59.5462 13.9941 59.3939 14.1626 59.2051 14.2836C59.0172 14.4093 58.8207 14.5222 58.6171 14.6215C57.3681 15.2562 56.0275 15.6993 54.6418 15.9352C54.4749 15.9575 54.3168 16.0222 54.1831 16.1229C54.1145 16.2232 54.0748 16.34 54.0685 16.4607C54.0192 16.6759 53.9936 16.8956 53.9921 17.1161C53.992 17.332 54.0444 17.5449 54.1449 17.7369C54.3161 18.0306 54.5981 18.2463 54.93 18.3375C55.2705 18.4377 55.6242 18.4883 55.9796 18.4876C56.8476 18.4613 57.711 18.354 58.5583 18.1671C59.4109 17.9794 60.2607 17.7744 61.0987 17.5492L61.7867 17.3789C62.0425 17.3182 62.2836 17.2605 62.5129 17.2114L63.3538 16.9862C63.5332 16.9371 63.6978 16.8909 63.8507 16.8534C64.0036 16.8158 64.1183 16.787 64.1948 16.761C65.1396 16.5088 66.0216 16.2711 66.841 16.0478C67.6603 15.8245 68.3934 15.632 69.0403 15.4703C69.6754 15.3058 70.187 15.1816 70.5693 15.095C70.794 15.0343 71.023 14.9899 71.2543 14.9622C71.3987 14.9708 71.5348 15.0315 71.6365 15.1325C71.7591 15.2413 71.8486 15.3812 71.8953 15.5368ZM55.3505 14.223L56.0767 13.9978C56.6817 13.7879 57.2712 13.5371 57.8409 13.2471C58.376 12.9728 58.6288 12.7851 58.6053 12.6841C58.5818 12.583 58.3554 12.6032 58.0173 12.6667C57.6793 12.7275 57.3518 12.8344 57.0441 12.9843C56.7725 13.1248 56.5103 13.282 56.259 13.455C56.0052 13.6094 55.7795 13.8046 55.5915 14.0324L55.3505 14.223Z" fill="currentColor"/>
<path d="M95.9849 15.5743C96.0849 15.7764 96.0996 15.9121 96.0231 15.9872C95.7871 16.1259 95.5285 16.2235 95.2587 16.2759C93.9591 16.6763 92.6663 17.0449 91.3804 17.3817C90.0946 17.7186 88.8018 18.0756 87.5022 18.4529C86.5319 18.7532 85.5764 19.0343 84.6355 19.296C83.6881 19.559 82.7137 19.7168 81.7305 19.7667C81.3979 19.7641 81.0658 19.739 80.7367 19.6916C80.3878 19.6409 80.0475 19.5437 79.7252 19.4029C79.4203 19.2761 79.1518 19.0778 78.9431 18.8254C78.7326 18.5435 78.6287 18.1985 78.6491 17.8495C78.6826 17.3934 78.7816 16.9443 78.9431 16.5155C79.1521 15.889 79.4136 15.2805 79.7252 14.6965C79.8546 14.4213 79.887 14.2711 79.8223 14.2461C79.5012 14.2769 79.1864 14.3527 78.8872 14.4713C77.7554 14.8165 76.6557 15.256 75.6001 15.785C74.3592 16.4329 73.1708 17.1733 72.0453 17.9996C71.7361 18.2332 71.4031 18.4345 71.0514 18.6002C70.87 18.6453 70.6777 18.6183 70.5163 18.5251C70.3672 18.468 70.234 18.377 70.1277 18.2596C70.0214 18.1421 69.945 18.0016 69.9048 17.8495C69.8896 17.7131 69.9163 17.5754 69.9812 17.4539C70.0577 17.2662 70.2252 16.9226 70.4781 16.4231C71.0387 15.2971 71.568 14.3346 72.0659 13.5358C72.4152 12.9391 72.8177 12.3738 73.2684 11.8467C73.3588 11.7107 73.4936 11.6089 73.6507 11.558C73.8124 11.5615 73.9705 11.6062 74.1093 11.6879C74.2712 11.7493 74.4156 11.8483 74.5298 11.9766C74.5774 12.0257 74.6098 12.087 74.6234 12.1534C74.6369 12.2199 74.631 12.2887 74.6062 12.352C74.5769 12.4792 74.5251 12.6003 74.4533 12.71C74.3495 12.9025 74.2348 13.095 74.1093 13.2875C73.9379 13.5168 73.7789 13.7549 73.633 14.0007C73.4654 14.2894 73.3066 14.5464 73.1537 14.8091C73.0008 15.0719 72.8597 15.3086 72.7333 15.5223C72.6069 15.7359 72.5157 15.8919 72.4657 15.99L72.351 16.2528L73.0391 15.8399C73.9809 15.292 74.9571 14.8031 75.9617 14.376C76.9191 13.9674 77.9107 13.6409 78.9255 13.4001C79.24 13.3037 79.57 13.2655 79.8987 13.2875C80.1573 13.2982 80.4108 13.3621 80.6426 13.4752C80.7817 13.541 80.9029 13.6384 80.996 13.7595C81.089 13.8805 81.1514 14.0216 81.1777 14.171C81.1711 14.5933 81.0708 15.0091 80.8837 15.3895C80.6544 15.9669 80.4721 16.4145 80.3309 16.7407C80.1898 17.067 80.0898 17.3182 80.0369 17.5088C79.984 17.6993 79.9281 17.8408 79.9046 17.9419C79.8799 18.0362 79.867 18.1332 79.8664 18.2306C79.8432 18.3475 79.8363 18.467 79.8458 18.5858C79.8458 18.6233 79.9163 18.6695 80.0192 18.7186C80.2822 18.7723 80.5521 18.785 80.819 18.7561C81.5681 18.7053 82.3073 18.5598 83.0183 18.323C83.7446 18.0862 84.462 17.8553 85.1765 17.63C85.5323 17.5059 85.8968 17.3933 86.2644 17.2922L87.3934 17.0035C88.2579 16.7513 89.1243 16.5136 89.9926 16.2903C90.861 16.067 91.7431 15.8418 92.6389 15.6147C92.9329 15.5165 93.2563 15.427 93.5768 15.3519L94.55 15.1267C94.6804 15.0767 94.8152 15.039 94.9529 15.0141C95.0976 14.9895 95.2441 14.977 95.391 14.9766C95.532 14.9827 95.6668 15.0356 95.7732 15.1267C95.89 15.2503 95.9641 15.4069 95.9849 15.5743Z" fill="currentColor"/>
<path d="M124.247 15.3866C124.323 15.5887 124.323 15.7302 124.247 15.8197C124.017 15.9768 123.757 16.085 123.482 16.1373C123.422 16.1654 123.357 16.1849 123.291 16.1951C123.225 16.2034 123.16 16.2219 123.1 16.2499C121.777 16.6503 120.459 17.0131 119.145 17.3384C117.832 17.6637 116.527 18.0266 115.229 18.427C114.053 18.7754 112.9 19.1604 111.771 19.5819C110.642 20.0035 109.49 20.4038 108.313 20.783L105.808 21.6261C104.97 21.911 104.107 22.1178 103.23 22.244C102.897 22.296 102.568 22.3393 102.236 22.3768C101.905 22.4148 101.571 22.408 101.242 22.3566C101.001 22.3205 100.769 22.2443 100.554 22.1314C100.311 21.9323 100.149 21.6533 100.098 21.3461C99.9195 20.6699 99.9125 19.961 100.078 19.2816C100.242 18.579 100.427 17.8909 100.631 17.2172L101.089 15.8659C100.401 16.2672 99.722 16.6541 99.0457 17.0208C98.3695 17.3875 97.702 17.7715 97.0405 18.1469C96.7847 18.297 96.5436 18.4356 96.3142 18.5396C96.0727 18.6569 95.8152 18.7396 95.5498 18.785C95.278 18.8339 95.0001 18.8397 94.7265 18.8023C94.458 18.7629 94.2101 18.6382 94.0208 18.4472C93.885 18.3171 93.7816 18.158 93.7189 17.9821C93.6561 17.8063 93.6357 17.6186 93.6592 17.4337C93.6959 17.0372 93.8192 16.6531 94.0208 16.3077C94.2807 15.877 94.5949 15.4803 94.9558 15.1267C95.3221 14.7664 95.7262 14.445 96.1613 14.1681C96.4906 13.9757 96.8346 13.788 97.1934 13.6051C97.5537 13.4305 97.9413 13.3163 98.3401 13.2673C98.7317 13.219 99.1286 13.2317 99.5162 13.3048C99.9027 13.3717 100.268 13.5259 100.583 13.7553C100.686 13.805 100.784 13.8619 100.878 13.9256C100.973 13.9887 101.086 14.021 101.201 14.018C101.245 13.9973 101.29 13.979 101.336 13.9631C101.387 13.9414 101.432 13.9089 101.469 13.8679C101.994 13.5293 102.443 13.0892 102.789 12.5743C103.132 12.0604 103.456 11.5291 103.762 10.9805C104.912 8.97652 106.246 7.07942 107.746 5.3127C109.272 3.51734 111.075 1.96736 113.088 0.718953C113.509 0.462792 113.958 0.254524 114.426 0.0981781C114.651 0.0167826 114.891 -0.013557 115.13 0.00944694C115.368 0.0324509 115.598 0.108198 115.802 0.230993C116.053 0.377189 116.247 0.600481 116.355 0.86621C116.467 1.12776 116.526 1.40826 116.529 1.69198C116.503 1.96231 116.439 2.22772 116.337 2.48023C116.234 2.73239 116.119 2.99513 115.993 3.26846C115.41 4.36863 114.684 5.39047 113.835 6.30882C112.978 7.24115 112.051 8.10973 111.063 8.90742C110.073 9.70625 109.048 10.4627 107.987 11.1769C106.927 11.891 105.863 12.6225 104.797 13.3712C104.67 13.4723 104.55 13.5676 104.435 13.66C104.307 13.7581 104.185 13.8642 104.071 13.9776C103.942 14.1057 103.833 14.2516 103.747 14.4107C103.656 14.5724 103.574 14.7427 103.497 14.916C103.351 15.1563 103.223 15.4073 103.115 15.6667C102.919 16.069 102.723 16.4626 102.527 16.8476C102.351 17.2374 102.183 17.6445 102.03 18.0689C101.727 18.8859 101.496 19.7274 101.342 20.5838V20.6415C101.339 20.706 101.359 20.7694 101.397 20.8217C101.436 20.8741 101.491 20.9123 101.554 20.9303C101.67 20.9849 101.791 21.0293 101.915 21.0631C102.025 21.0648 102.134 21.058 102.242 21.0429C102.33 21.0429 102.439 21.0111 102.565 20.988C103.142 20.8639 103.71 20.7067 104.268 20.5174C104.815 20.3249 105.368 20.1324 105.929 19.9399C106.744 19.6396 107.572 19.3394 108.413 19.0391C109.254 18.7388 110.094 18.4501 110.933 18.1729C112.286 17.7725 113.624 17.3875 114.947 17.0179C116.27 16.6484 117.608 16.2923 118.96 15.9496C119.495 15.7995 120.03 15.6561 120.566 15.5194C121.098 15.3808 121.633 15.2509 122.168 15.1239C122.374 15.0748 122.594 15.0112 122.838 14.9362C123.066 14.8632 123.304 14.8252 123.544 14.8236C123.688 14.8322 123.825 14.8929 123.926 14.9939C124.058 15.1036 124.166 15.2369 124.247 15.3866ZM98.7223 15.5743C99.3104 15.1989 99.7161 14.9362 99.9425 14.786C100.169 14.6359 100.275 14.5493 100.237 14.5233C100.049 14.4529 99.8489 14.4214 99.6485 14.4309C99.3841 14.4101 99.1182 14.4415 98.8664 14.5233C98.377 14.6472 97.9119 14.8502 97.4903 15.1239C97.0136 15.4187 96.5769 15.7719 96.1907 16.1748C95.9371 16.4281 95.7004 16.6972 95.4821 16.9804C95.241 17.2951 95.1322 17.477 95.1587 17.5261C95.1851 17.5752 95.5468 17.4251 96.1702 17.0757C96.7935 16.7263 97.6521 16.2239 98.7223 15.5743ZM105.523 11.148C105.473 11.1971 105.605 11.122 105.923 10.9228C106.241 10.7236 106.638 10.4579 107.099 10.1345C107.561 9.81116 108.075 9.45313 108.61 9.06334C109.146 8.67355 109.604 8.33284 109.986 8.03256C110.369 7.73228 110.716 7.4551 111.113 7.11151C111.509 6.76792 111.889 6.43587 112.259 6.09805C112.63 5.76024 112.959 5.43686 113.253 5.12502C113.547 4.81319 113.779 4.54755 113.959 4.31657C114.425 3.76753 114.83 3.17018 115.164 2.53509C115.419 2.11571 115.581 1.64847 115.641 1.1636C115.641 1.01346 115.576 0.941274 115.449 0.941274C115.153 0.985258 114.868 1.08318 114.609 1.23001C114.203 1.42964 113.819 1.66855 113.462 1.94318C111.96 3.03393 110.601 4.3013 109.413 5.71692C107.962 7.41575 106.661 9.23265 105.523 11.148Z" fill="currentColor"/>
<path d="M130.439 10.097C131.373 9.99619 132.317 10.0947 133.209 10.3858C134.083 10.6713 134.886 11.138 135.561 11.7543L136.02 12.1672L136.555 12.0546C136.79 11.9854 137.038 11.9667 137.281 11.9998C137.487 12.0717 137.671 12.1939 137.816 12.3549C138.275 12.8313 138.375 13.2702 138.11 13.6687C137.945 13.9369 137.724 14.1673 137.46 14.3443C137.331 14.4713 137.204 14.607 137.078 14.7572C136.952 14.9073 136.86 15.0199 136.81 15.095C136.684 15.3202 136.581 15.4328 136.516 15.4328C136.452 15.4328 136.369 15.5021 136.222 15.6407C136.06 15.8006 135.907 15.9693 135.764 16.146L135.229 16.7841C135.037 17.0093 134.876 17.2085 134.749 17.3846C134.552 17.674 134.374 17.9748 134.214 18.2855C134.084 18.5199 133.994 18.7734 133.947 19.0362L133.908 19.2989H134.291C134.426 19.295 134.56 19.2825 134.693 19.2614L135.17 19.1863L135.934 18.9987L137.404 18.6406C137.977 18.5059 138.595 18.3558 139.26 18.1902L141.15 17.7225C141.75 17.5723 142.285 17.4405 142.756 17.3269L143.767 17.0844C143.973 17.0353 144.182 16.9775 144.399 16.914L144.876 16.7841L147.551 16.0709C148.392 15.8457 149.124 15.6532 149.748 15.4934C150.371 15.3289 150.877 15.2047 151.259 15.1181C151.485 15.0573 151.715 15.0129 151.947 14.9853C152.091 14.9939 152.227 15.0546 152.329 15.1556C152.451 15.2613 152.542 15.3967 152.594 15.5483C152.697 15.7504 152.708 15.8919 152.632 15.9814C152.403 16.138 152.144 16.2462 151.87 16.299C151.463 16.4241 150.946 16.5743 150.321 16.7494C149.696 16.9246 149.091 17.0873 148.507 17.2374C148.301 17.2865 147.819 17.4193 147.054 17.6301L144.57 18.3259C142.149 19.0015 140.189 19.5328 138.689 19.9197C137.19 20.3066 136.186 20.5347 135.678 20.604C135.337 20.6505 134.991 20.6631 134.646 20.6416C134.395 20.6222 134.149 20.5587 133.92 20.4539C133.696 20.335 133.496 20.1753 133.332 19.9832C133.159 19.7966 133.011 19.589 132.891 19.3654C132.802 19.0981 132.751 18.8203 132.738 18.5396C132.711 18.2505 132.724 17.9591 132.776 17.6734C132.915 17.2127 133.112 16.7712 133.364 16.3596C133.659 15.8561 133.997 15.3788 134.376 14.9333C134.519 14.7832 134.647 14.6198 134.758 14.4453C134.658 14.4692 134.559 14.501 134.464 14.5406C134.285 14.6013 134.07 14.685 133.814 14.7832C133.559 14.8813 133.203 14.9766 132.744 15.1412C132.285 15.3058 131.862 15.4472 131.444 15.5714C130.53 15.8601 129.739 16.1287 129.092 16.3394C128.445 16.5502 127.869 16.7234 127.41 16.8476C126.952 16.9718 126.564 17.067 126.234 17.1363C125.964 17.1944 125.688 17.2263 125.411 17.2316C125.208 17.2559 125.003 17.2617 124.799 17.2489C124.666 17.227 124.536 17.1831 124.417 17.119C124.302 17.0616 124.194 16.9918 124.094 16.9111C123.999 16.843 123.914 16.7613 123.844 16.6686C123.412 16.1171 123.256 15.6061 123.368 15.1296C123.479 14.6532 123.92 14.0296 124.685 13.2529C125.507 12.3929 126.461 11.6651 127.513 11.096C128.413 10.5787 129.407 10.2393 130.439 10.097ZM132.791 12.1586C131.92 12.0391 131.032 12.1161 130.195 12.3838C129.222 12.6881 128.306 13.1444 127.481 13.7351C127.352 13.8361 127.187 13.966 126.984 14.1306C126.781 14.2952 126.581 14.4627 126.396 14.6359C126.211 14.8091 125.984 15.0257 125.729 15.274C125.755 15.326 126.181 15.2249 127.008 14.9853C127.834 14.7456 128.901 14.4078 130.201 13.9718C130.889 13.7235 131.563 13.4983 132.224 13.2962C132.888 13.097 133.32 12.9584 133.523 12.8833C133.726 12.8082 133.95 12.7851 134.111 12.7331C134.273 12.6812 134.358 12.6465 134.358 12.6205C134.358 12.5946 134.302 12.5657 134.188 12.5282C134.073 12.4906 133.926 12.4473 133.747 12.3953L133.212 12.2452C133.081 12.1998 132.944 12.1707 132.806 12.1586H132.791Z" fill="currentColor"/>
<path d="M174.993 15.6118C175.096 15.8139 175.107 15.9496 175.031 16.0247C174.795 16.1641 174.537 16.2618 174.267 16.3134C173.861 16.4376 173.343 16.5877 172.72 16.7638C172.097 16.94 171.491 17.1132 170.906 17.2893C169.453 17.6397 168.026 18.0333 166.625 18.4703C165.223 18.9072 163.827 19.3807 162.435 19.8908C161.618 20.1911 160.808 20.4914 160.006 20.7917C159.205 21.092 158.396 21.3547 157.581 21.5799C157.072 21.7272 156.56 21.8686 156.052 21.9524C155.536 22.0539 155.01 22.0917 154.484 22.065C153.897 22.0427 153.322 21.8897 152.803 21.6174C152.607 21.5189 152.439 21.3751 152.313 21.1985C152.187 21.0219 152.107 20.8179 152.079 20.604C152.078 20.5218 152.084 20.4398 152.097 20.3586C152.117 20.2432 152.149 20.1301 152.191 20.0207L152.403 19.4779C152.491 19.2527 152.626 18.9524 152.803 18.5771C152.944 18.3149 153.029 18.027 153.053 17.7311C153.004 17.4994 152.891 17.2854 152.726 17.1132C152.138 16.4645 151.795 15.9333 151.697 15.5194C151.611 15.0061 151.715 14.4794 151.991 14.0353C152.579 12.9093 153.265 12.146 154.049 11.7457C154.284 11.6156 154.545 11.5387 154.814 11.5204C155.055 11.5305 155.29 11.5947 155.502 11.7081C155.709 11.8151 155.886 11.9696 156.019 12.1585C156.132 12.3242 156.179 12.5244 156.152 12.7216C156.125 12.7736 156.087 12.8602 156.037 12.9843C155.99 13.1053 155.926 13.219 155.846 13.3221C155.707 13.5152 155.554 13.6976 155.387 13.8678C155.184 14.0786 154.967 14.2981 154.737 14.5233C154.508 14.7485 154.273 14.9621 154.032 15.1614C153.844 15.3223 153.648 15.4727 153.444 15.6118L152.908 15.9872L153.023 16.1748C153.05 16.2239 153.105 16.3192 153.197 16.4636C153.289 16.607 153.397 16.7397 153.52 16.8591C154.032 17.4847 154.274 17.9852 154.246 18.3605C154.229 18.5291 154.184 18.6939 154.114 18.8485C154.023 19.0737 153.929 19.3105 153.82 19.5617C153.65 19.9206 153.503 20.29 153.382 20.6675C153.344 20.8321 153.35 20.936 153.4 20.988C153.695 21.0474 153.999 21.0601 154.299 21.0255C154.679 21.0128 155.056 20.9625 155.425 20.8754C155.808 20.7734 156.184 20.6608 156.554 20.5376C156.922 20.4105 157.298 20.2864 157.681 20.1622C158.494 19.8851 159.284 19.578 160.05 19.2412C160.815 18.9034 161.603 18.5973 162.42 18.323C164.105 17.6948 165.827 17.1683 167.577 16.7465C168.365 16.5473 169.145 16.3394 169.909 16.1257C170.674 15.9121 171.438 15.71 172.202 15.5079C172.557 15.4302 172.908 15.3338 173.252 15.2191C173.602 15.0977 173.969 15.0343 174.34 15.0314C174.484 15.0401 174.621 15.1008 174.722 15.2018C174.85 15.3107 174.944 15.4528 174.993 15.6118Z" fill="currentColor"/>
<path d="M198.915 15.5743C199.015 15.7764 199.029 15.9121 198.953 15.9872C198.717 16.1259 198.458 16.2236 198.188 16.2759C197.781 16.401 197.265 16.5512 196.642 16.7263C196.019 16.9015 195.413 17.0641 194.825 17.2143C194.622 17.2634 194.143 17.3962 193.393 17.607L190.929 18.3028C190.7 18.3779 190.47 18.4472 190.241 18.5078C190.012 18.5684 189.794 18.6262 189.591 18.6782C189.056 18.8283 188.456 19.0015 187.795 19.2037C187.233 19.3769 186.566 19.579 185.789 19.8042C185.013 20.0294 184.178 20.2662 183.284 20.5174L183.093 20.8552C182.921 21.1027 182.762 21.3591 182.617 21.6232C182.426 21.9611 182.229 22.2787 182.029 22.5789C180.757 24.6809 179.604 26.2507 178.571 27.2882C177.538 28.3257 176.526 28.9455 175.534 29.1476C175.126 29.2603 174.695 29.264 174.285 29.1584C173.875 29.0528 173.501 28.8418 173.202 28.5471C172.491 27.8464 172.452 26.9205 173.087 25.7694C173.678 24.7173 174.478 23.7924 175.44 23.0496C176.624 22.0966 177.927 21.2961 179.318 20.6675C179.75 20.4654 180.126 20.298 180.444 20.1594C180.762 20.0208 181.229 19.8273 181.838 19.5819C182.075 19.2884 182.272 18.9662 182.426 18.6233C182.732 18.0458 183.026 17.4395 183.308 16.8043C183.505 16.383 183.678 15.9511 183.825 15.5108C183.931 15.2359 184.014 14.953 184.072 14.6648C184.072 14.6417 183.925 14.6908 183.634 14.8149C183.343 14.9391 182.958 15.121 182.487 15.3606C182.017 15.6003 181.476 15.8803 180.864 16.2037L179.03 17.1796C178.774 17.3038 178.489 17.4482 178.168 17.6098C177.848 17.7715 177.539 17.9303 177.233 18.0805C176.927 18.2306 176.645 18.3692 176.375 18.4732C176.194 18.5539 176.009 18.6234 175.819 18.6811C175.388 18.8522 174.928 18.9413 174.464 18.9438C174.138 18.9153 173.826 18.7984 173.564 18.606C173.385 18.4831 173.239 18.3204 173.136 18.1312C173.034 17.942 172.979 17.7316 172.976 17.5174C173 17.1028 173.118 16.6986 173.32 16.3336C173.573 15.8358 173.868 15.3597 174.202 14.9102C174.558 14.419 174.951 13.9548 175.378 13.5214C175.762 13.1215 176.199 12.7739 176.678 12.4877C176.872 12.3586 177.095 12.2756 177.327 12.2452C177.532 12.2409 177.732 12.2995 177.901 12.4126C178.06 12.4931 178.202 12.6018 178.321 12.7331C178.432 12.8365 178.5 12.9763 178.512 13.1258C178.512 13.2269 178.321 13.4146 177.924 13.6513C177.339 14.1249 176.796 14.6465 176.301 15.2105C175.775 15.7924 175.296 16.4131 174.866 17.067C174.775 17.199 174.692 17.3369 174.619 17.4799C174.555 17.6041 174.534 17.6676 174.561 17.6676C174.611 17.7167 175.046 17.5434 175.86 17.1421C176.675 16.7408 177.68 16.2297 178.88 15.6031C179.468 15.2798 180.038 14.965 180.6 14.6648C181.161 14.3645 181.682 14.0873 182.164 13.8592C182.646 13.6311 183.064 13.4145 183.408 13.2384C183.752 13.0623 183.996 12.9497 184.113 12.9006C184.289 12.7902 184.493 12.732 184.702 12.7331C184.91 12.7605 185.11 12.8303 185.29 12.9381C185.466 13.0278 185.619 13.1554 185.738 13.3114C185.858 13.4673 185.939 13.6477 185.978 13.839C185.997 14.0408 185.979 14.2446 185.922 14.4395C185.857 14.7283 185.769 15.0343 185.654 15.3981C185.539 15.7619 185.404 16.1546 185.251 16.5791C185.098 17.0035 184.934 17.4164 184.754 17.8177C184.705 17.9409 184.661 18.0535 184.622 18.1556C184.588 18.2483 184.543 18.3366 184.487 18.4183C184.443 18.5036 184.405 18.5914 184.372 18.6811C184.424 18.674 184.476 18.6614 184.525 18.6435C184.579 18.6176 184.639 18.6047 184.699 18.606C184.774 18.601 184.846 18.5749 184.907 18.5309C185.622 18.2797 186.425 18.0314 187.315 17.7802C188.206 17.529 189.174 17.2807 190.22 17.0295C190.423 16.9804 190.614 16.9284 190.808 16.8793L191.229 16.7667C192.195 16.5146 193.093 16.2769 193.922 16.0536C194.751 15.8303 195.478 15.6378 196.101 15.4761C196.724 15.3106 197.227 15.1854 197.609 15.1008C197.835 15.04 198.065 14.9956 198.297 14.9679C198.442 14.9766 198.578 15.0373 198.68 15.1383C198.797 15.2601 198.878 15.4107 198.915 15.5743ZM179.962 23.2661C180.256 22.7175 180.52 22.2527 180.726 21.8773C180.846 21.6761 180.945 21.4632 181.02 21.2421C181.02 21.1901 180.961 21.1901 180.847 21.2421C180.732 21.2941 180.42 21.4529 179.912 21.7272C179.251 22.035 178.613 22.3861 178.001 22.7782C177.405 23.1744 176.831 23.6004 176.281 24.0544C175.461 24.7137 174.765 25.508 174.222 26.4018C173.79 27.164 173.702 27.7559 173.955 28.1833C174.034 28.337 174.162 28.4615 174.319 28.5384C174.502 28.5758 174.692 28.5699 174.872 28.5211C176.433 28.2208 178.129 26.4692 179.962 23.2661Z" fill="currentColor"/>
<path d="M55.0094 36.6403H56.0385V45.7614H59.999V46.7373H55.0005L55.0094 36.6403Z" fill="currentColor"/>
<path d="M65.4503 36.6403H66.4764V46.7459H65.4503V36.6403Z" fill="currentColor"/>
<path d="M72.8098 46.7459V36.6403H73.0332L79.884 44.387V36.6403H80.8984V46.7459H80.6691L73.8741 39.0945V46.7459H72.8098Z" fill="currentColor"/>
<path d="M97.2992 38.3351L96.5024 39.0772C95.9593 38.5448 95.3189 38.1177 94.6147 37.8183C93.9859 37.5432 93.3066 37.3968 92.6183 37.3881C91.8125 37.3857 91.0193 37.5845 90.3131 37.9655C89.6097 38.3303 89.0225 38.8789 88.6166 39.5507C88.2278 40.1893 88.0245 40.9202 88.0285 41.6642C88.0304 42.4285 88.2461 43.1776 88.6519 43.8297C89.0634 44.5133 89.6585 45.0727 90.3719 45.4466C91.1121 45.8357 91.9405 46.0343 92.78 46.0241C93.7519 46.0561 94.7039 45.7493 95.4674 45.1579C96.1866 44.5911 96.6536 43.7723 96.77 42.874H93.4857V41.8981H97.9225C97.9225 43.4592 97.4501 44.6998 96.5053 45.6199C95.5605 46.54 94.3089 47 92.7506 47C90.8453 47 89.3379 46.3638 88.2285 45.0915C87.3908 44.1507 86.9354 42.9398 86.9495 41.6902C86.9437 40.7501 87.1978 39.8261 87.6845 39.0165C88.163 38.2029 88.8596 37.5337 89.6986 37.082C90.5871 36.6096 91.5845 36.37 92.5948 36.3862C93.439 36.3803 94.2761 36.5372 95.0587 36.8481C95.8928 37.2035 96.6524 37.7077 97.2992 38.3351Z" fill="currentColor"/>
<path d="M103.841 36.6403H109.739V37.6277H104.87V40.8038H109.698V41.7942H104.87V45.7613H109.698V46.7488H103.841V36.6403Z" fill="currentColor"/>
<path d="M115.541 36.6402H117.599C118.376 36.6154 119.153 36.6609 119.922 36.776C120.506 36.8977 121.032 37.2101 121.412 37.6624C121.806 38.1299 122.015 38.7216 122 39.3284C122.01 39.8363 121.873 40.3366 121.606 40.772C121.337 41.1945 120.942 41.5252 120.474 41.7191C119.827 41.9594 119.137 42.0704 118.446 42.0453L122.147 46.7373H120.877L117.155 42.054H116.567V46.7459H115.538L115.541 36.6402ZM116.57 37.6277V41.0636H118.334C118.849 41.0881 119.365 41.0227 119.857 40.8702C120.175 40.753 120.445 40.537 120.627 40.2552C120.818 39.976 120.921 39.6474 120.921 39.311C120.921 38.9809 120.818 38.6588 120.627 38.3871C120.451 38.1189 120.194 37.911 119.892 37.7923C119.402 37.6482 118.889 37.5877 118.378 37.6133L116.57 37.6277Z" fill="currentColor"/>
<path d="M128.001 36.6403H129.031V46.7459H128.001V36.6403Z" fill="currentColor"/>
<path d="M135.364 36.6403H141.265V37.6277H136.393V40.8038H141.221V41.7942H136.393V45.7613H141.221V46.7488H135.367L135.364 36.6403Z" fill="currentColor"/>
</svg>
