<svg width="25" height="28" viewBox="0 0 25 28" fill="none" xmlns="http://www.w3.org/2000/svg">
<path d="M2.96223 12.1029C3.01005 11.5301 3.28054 10.9956 3.71982 10.6059C4.15911 10.2162 4.73497 9.99988 5.3327 10H19.6673C20.265 9.99988 20.8409 10.2162 21.2802 10.6059C21.7195 10.9956 21.99 11.5301 22.0378 12.1029L22.9924 23.5314C23.0186 23.8459 22.9769 24.1623 22.8697 24.4605C22.7626 24.7587 22.5924 25.0324 22.3698 25.2643C22.1472 25.4962 21.8772 25.6813 21.5765 25.8079C21.2759 25.9345 20.9513 25.9999 20.6231 26H4.37691C4.0487 25.9999 3.72408 25.9345 3.42346 25.8079C3.12285 25.6813 2.85275 25.4962 2.63019 25.2643C2.40763 25.0324 2.23742 24.7587 2.13027 24.4605C2.02312 24.1623 1.98136 23.8459 2.00762 23.5314L2.96223 12.1029V12.1029Z" stroke="currentColor" stroke-width="1.6" stroke-linecap="round" stroke-linejoin="round"/>
<path d="M17 13V6.88889C17 5.59227 16.5259 4.34877 15.682 3.43192C14.8381 2.51508 13.6935 2 12.5 2C11.3065 2 10.1619 2.51508 9.31802 3.43192C8.47411 4.34877 8 5.59227 8 6.88889V13" stroke="currentColor" stroke-width="1.6" stroke-linecap="round" stroke-linejoin="round"/>
</svg>
